<svg width="16" height="22" viewBox="0 0 16 22" fill="none" xmlns="http://www.w3.org/2000/svg">
<path d="M6.01212 0.265791C3.74206 0.986742 2.06604 2.42865 1.09013 4.52789L0.496094 5.80016V10.5712V15.3422L1.09013 16.6356C1.85388 18.2684 3.29654 19.7103 4.95134 20.4737C6.03333 20.9826 6.50007 21.0674 8.02759 21.0674C9.5551 21.0674 10.0218 20.9826 11.1038 20.4737C12.7586 19.7103 14.2013 18.2684 14.965 16.6356L15.5591 15.3422V10.5712V5.80016L14.965 4.52789C14.3286 3.1496 13.2466 1.89853 12.0373 1.13517C10.3825 0.0749512 7.81543 -0.30673 6.01212 0.265791ZM10.9129 1.47445C12.2495 2.11058 13.5224 3.38285 14.1589 4.73993C14.562 5.56691 14.6892 6.26666 14.7741 7.96302L14.8802 10.1471H8.0488H1.23864V8.3447C1.23864 4.71873 2.8298 2.28022 5.90604 1.15638C7.2214 0.68988 9.51267 0.838312 10.9129 1.47445ZM14.7741 13.1793C14.6892 15.1513 14.6044 15.4906 13.9679 16.6993C13.2042 18.1412 12.2919 18.9893 10.7856 19.7315C10.0218 20.092 9.44902 20.198 8.02759 20.198C5.90604 20.198 4.63311 19.6891 3.25411 18.3108C1.85388 16.9325 1.38714 15.7027 1.28107 13.1581L1.1962 10.9953H8.02759H14.8802L14.7741 13.1793Z" fill="white" fill-opacity="0.64"/>
<path d="M6.86085 3.14922C6.05466 3.97619 5.88494 4.27306 6.07588 4.4639C6.26682 4.65474 6.47897 4.56992 6.96693 4.10342L7.6034 3.48849V5.48172V7.47495L6.96693 6.86001C6.45776 6.37231 6.26682 6.3087 6.07588 6.49954C5.86372 6.71158 6.05466 7.00845 6.9245 7.87783L8.02771 8.98047L9.13092 7.87783C10.0008 7.00845 10.1917 6.71158 9.97954 6.49954C9.7886 6.3087 9.59766 6.37231 9.08849 6.86001L8.45202 7.47495V5.48172V3.48849L9.08849 4.10342C9.57645 4.56992 9.7886 4.65474 9.97954 4.4639C10.1705 4.27306 10.0008 3.97619 9.19457 3.14922C8.62175 2.55549 8.09136 2.08899 8.02771 2.08899C7.96406 2.08899 7.43367 2.55549 6.86085 3.14922Z" fill="white" fill-opacity="0.64"/>
</svg>
